<svg width="150" height="150" viewBox="0 0 150 150" fill="none" xmlns="http://www.w3.org/2000/svg">
<path d="M9.375 139.286C9.375 145.212 13.5645 150 18.75 150H131.25C136.436 150 140.625 145.212 140.625 139.286V42.8571H9.375V139.286ZM56.25 68.3036C56.25 66.0938 57.832 64.2857 59.7656 64.2857H90.2344C92.168 64.2857 93.75 66.0938 93.75 68.3036V70.9821C93.75 73.192 92.168 75 90.2344 75H59.7656C57.832 75 56.25 73.192 56.25 70.9821V68.3036ZM140.625 0H9.375C4.18945 0 0 4.78795 0 10.7143V26.7857C0 29.7321 2.10937 32.1429 4.6875 32.1429H145.312C147.891 32.1429 150 29.7321 150 26.7857V10.7143C150 4.78795 145.811 0 140.625 0Z" fill="url(#paint0_linear_60_195)"/>
<defs>
<linearGradient id="paint0_linear_60_195" x1="75" y1="0" x2="75" y2="150" gradientUnits="userSpaceOnUse">
<stop stop-color="#65D4FB"/>
<stop offset="1" stop-color="#4E6FEC"/>
</linearGradient>
</defs>
</svg>
