<svg width="150" height="150" viewBox="0 0 150 150" fill="none" xmlns="http://www.w3.org/2000/svg">
<path d="M37.9379 106.24C34.5434 103.694 36.3129 104.411 28.1255 102.768C24.4107 102.021 21.1451 100.585 18.192 98.8656L0.469517 131.455C-1.24531 134.61 1.95778 138.038 6.4968 137.909L27.0786 137.32L41.2347 148.535C44.3597 151.007 49.844 150.237 51.5588 147.081L71.8907 109.694C67.6563 111.463 62.9572 112.5 58.0978 112.5C50.4807 112.5 43.3245 110.277 37.9379 106.24V106.24ZM149.53 131.455L131.808 98.8656C128.855 100.588 125.589 102.021 121.875 102.768C113.644 104.42 115.449 103.7 112.062 106.24C106.675 110.277 99.5154 112.5 91.8983 112.5C87.0389 112.5 82.3398 111.46 78.1054 109.694L98.4373 147.081C100.152 150.237 105.64 151.007 108.761 148.535L122.921 137.32L143.503 137.909C148.042 138.038 151.245 134.607 149.53 131.455V131.455ZM102.734 99.6097C108.703 95.0542 109.386 95.4467 117.886 93.7095C123.312 92.5991 127.554 89.3619 129.007 85.2194C131.929 76.8993 131.171 77.9041 139.144 71.8164C143.116 68.7842 144.667 64.3634 143.214 60.2209C140.296 51.9066 140.292 53.0667 143.214 44.7437C144.667 40.6012 143.116 36.1804 139.144 33.1482C131.171 27.0604 131.929 28.0623 129.007 19.7451C127.554 15.6026 123.312 12.3654 117.886 11.2551C106.996 9.02562 108.308 9.60862 100.328 3.51792C96.3553 0.485751 90.5623 -0.700749 85.1366 0.409581C74.25 2.6361 75.7695 2.63903 64.8634 0.409581C59.4377 -0.700749 53.6448 0.482822 49.6721 3.51792C41.6996 9.60569 43.0121 9.02562 32.1176 11.2551C26.6919 12.3654 22.4498 15.6026 20.9967 19.7451C18.0787 28.0623 18.8326 27.0604 10.86 33.1482C6.88742 36.1804 5.33275 40.6012 6.78976 44.7437C9.7077 53.0521 9.71161 51.8919 6.78976 60.218C5.33665 64.3605 6.88742 68.7813 10.86 71.8164C18.8326 77.9041 18.0748 76.8993 20.9967 85.2194C22.4498 89.3619 26.6919 92.5991 32.1176 93.7095C40.8597 95.4965 41.5121 95.2153 47.2659 99.6097C52.4338 103.556 60.4845 104.262 66.6954 101.315C69.179 100.132 72.0601 99.5043 75.002 99.5043C77.9438 99.5043 80.8249 100.132 83.3085 101.315C89.5155 104.262 97.5662 103.556 102.734 99.6097ZM38.1488 51.5521C38.1488 36.0163 54.6486 23.4218 75 23.4218C95.3514 23.4218 111.851 36.0163 111.851 51.5521C111.851 67.0879 95.3514 79.6824 75 79.6824C54.6486 79.6824 38.1488 67.0879 38.1488 51.5521V51.5521Z" fill="url(#paint0_linear_60_199)"/>
<defs>
<linearGradient id="paint0_linear_60_199" x1="75" y1="0" x2="75" y2="150" gradientUnits="userSpaceOnUse">
<stop stop-color="#65D4FB"/>
<stop offset="1" stop-color="#4E6FEC"/>
</linearGradient>
</defs>
</svg>
