<svg width="150" height="150" viewBox="0 0 150 150" fill="none" xmlns="http://www.w3.org/2000/svg">
<path d="M126 65.1563C126.961 61.5737 127.5 57.6563 127.5 53.5714C127.5 35.8259 117.422 21.4286 105 21.4286C100.383 21.4286 96.0703 23.4375 92.5078 26.8527C86.0156 10.7812 73.8984 0 60 0C39.2812 0 22.5 23.9732 22.5 53.5714C22.5 54.4754 22.5234 55.3795 22.5469 56.2835C9.42187 62.8795 0 80.7589 0 101.786C0 128.404 15.1172 150 33.75 150H120C136.57 150 150 130.815 150 107.143C150 86.4174 139.687 69.1071 126 65.1563Z" fill="url(#paint0_linear_60_201)"/>
<defs>
<linearGradient id="paint0_linear_60_201" x1="75" y1="0" x2="75" y2="150" gradientUnits="userSpaceOnUse">
<stop stop-color="#65D4FB"/>
<stop offset="1" stop-color="#4E6FEC"/>
</linearGradient>
</defs>
</svg>
