<svg width="150" height="150" viewBox="0 0 150 150" fill="none" xmlns="http://www.w3.org/2000/svg">
<path d="M145.53 84.3748H80.1014L123.676 130.673C125.341 132.443 128.082 132.586 129.794 130.872C140.465 120.191 147.805 105.791 149.959 89.6043C150.328 86.8328 148.164 84.3748 145.53 84.3748V84.3748ZM141.166 65.3902C138.894 30.3918 112.572 2.42468 79.6327 0.0105939C77.118 -0.173978 75.0004 2.07898 75.0004 4.75674V70.3121H136.701C139.222 70.3121 141.339 68.0621 141.166 65.3902ZM61.7651 84.3748V14.8555C61.7651 12.0576 59.4517 9.75777 56.846 10.1504C23.9867 15.084 -1.12991 45.5853 0.0392054 82.1394C1.24141 119.681 31.6632 150.466 67.0123 149.995C80.9093 149.81 93.7503 145.052 104.308 137.095C106.486 135.454 106.63 132.047 104.741 130.04L61.7651 84.3748Z" fill="url(#paint0_linear_60_205)"/>
<defs>
<linearGradient id="paint0_linear_60_205" x1="75" y1="0" x2="75" y2="150" gradientUnits="userSpaceOnUse">
<stop stop-color="#65D4FB"/>
<stop offset="1" stop-color="#4E6FEC"/>
</linearGradient>
</defs>
</svg>
