<svg width="150" height="150" viewBox="0 0 150 150" fill="none" xmlns="http://www.w3.org/2000/svg">
<path d="M0 118.74V131.25C0 141.592 25.1953 150 56.25 150C87.3047 150 112.5 141.592 112.5 131.25V118.74C100.4 127.266 78.2812 131.25 56.25 131.25C34.2188 131.25 12.0996 127.266 0 118.74ZM93.75 37.5C124.805 37.5 150 29.0918 150 18.75C150 8.4082 124.805 0 93.75 0C62.6953 0 37.5 8.4082 37.5 18.75C37.5 29.0918 62.6953 37.5 93.75 37.5ZM0 88.0078V103.125C0 113.467 25.1953 121.875 56.25 121.875C87.3047 121.875 112.5 113.467 112.5 103.125V88.0078C100.4 97.9687 78.252 103.125 56.25 103.125C34.248 103.125 12.0996 97.9687 0 88.0078ZM121.875 91.2305C138.662 87.9785 150 81.9434 150 75V62.4902C143.203 67.2949 133.213 70.5762 121.875 72.5977V91.2305ZM56.25 46.875C25.1953 46.875 0 57.3633 0 70.3125C0 83.2617 25.1953 93.75 56.25 93.75C87.3047 93.75 112.5 83.2617 112.5 70.3125C112.5 57.3633 87.3047 46.875 56.25 46.875ZM120.498 63.3691C138.076 60.2051 150 53.9941 150 46.875V34.3652C139.6 41.7188 121.729 45.6738 102.92 46.6113C111.562 50.8008 117.92 56.4258 120.498 63.3691Z" fill="url(#paint0_linear_60_207)"/>
<defs>
<linearGradient id="paint0_linear_60_207" x1="75" y1="0" x2="75" y2="150" gradientUnits="userSpaceOnUse">
<stop stop-color="#65D4FB"/>
<stop offset="1" stop-color="#4E6FEC"/>
</linearGradient>
</defs>
</svg>
