<svg width="150" height="150" viewBox="0 0 150 150" fill="none" xmlns="http://www.w3.org/2000/svg">
<circle cx="75" cy="75" r="75" fill="#70D7FB"/>
<path d="M114.413 97.263L76.4192 114.731C75.9711 114.908 75.4886 115 75.001 115C74.5134 115 74.0308 114.908 73.5827 114.731L35.5873 97.263C34.8139 96.9058 34.8139 96.3201 35.5873 95.9612L44.6864 91.7862C45.1352 91.6086 45.6183 91.517 46.1066 91.517C46.5948 91.517 47.078 91.6086 47.5267 91.7862L73.5827 103.75C74.0306 103.929 74.5132 104.021 75.001 104.021C75.4887 104.021 75.9714 103.929 76.4192 103.75L102.475 91.7862C102.924 91.6085 103.406 91.5169 103.894 91.5169C104.382 91.5169 104.865 91.6085 105.314 91.7862L114.413 95.9701C115.196 96.3201 115.196 96.9058 114.413 97.263ZM114.413 72.8826L105.314 68.6987C104.865 68.521 104.382 68.4294 103.894 68.4294C103.406 68.4294 102.924 68.521 102.475 68.6987L76.4192 80.6773C75.9709 80.854 75.4884 80.9452 75.001 80.9452C74.5135 80.9452 74.0311 80.854 73.5827 80.6773L47.5267 68.6987C47.078 68.5211 46.5948 68.4295 46.1066 68.4295C45.6183 68.4295 45.1352 68.5211 44.6864 68.6987L35.5873 72.8826C34.8139 73.2398 34.8139 73.8273 35.5873 74.188L73.5827 91.6523C74.0308 91.8299 74.5134 91.9214 75.001 91.9214C75.4886 91.9214 75.9711 91.8299 76.4192 91.6523L114.413 74.188C115.196 73.8273 115.196 73.2415 114.413 72.8826V72.8826ZM35.5873 52.5755L73.5808 68.6987C74.4925 69.0291 75.5056 69.0291 76.4173 68.6987L114.413 52.5755C115.186 52.2433 115.186 51.7023 114.413 51.3719L76.4173 35.2505C75.5064 34.9165 74.4917 34.9165 73.5808 35.2505L35.5873 51.3719C34.8042 51.7023 34.8042 52.2433 35.5873 52.5755V52.5755Z" fill="#E1FEFF"/>
</svg>
