<svg width="721" height="1097" viewBox="0 0 721 1097" fill="none" xmlns="http://www.w3.org/2000/svg">
<ellipse cx="201.049" cy="97.482" rx="103.99" ry="97.482" fill="#4BE3FB"/>
<path d="M162.225 85.5608V112.448C162.225 116.024 158.73 118.88 154.281 118.88C149.862 118.88 145.586 116 145.586 112.448V85.5608C145.586 82.0548 149.862 79.1756 154.281 79.1756C158.643 79.1756 162.225 82.0548 162.225 85.5608ZM165.345 122.014C165.345 125.822 169.158 128.887 173.895 128.887H179.643L179.73 143.073C179.73 151.641 195.675 151.571 195.675 143.073V128.887H206.421V143.073C206.421 151.595 222.453 151.618 222.453 143.073V128.887H228.288C232.967 128.887 236.78 125.822 236.78 122.014V80.3598H165.345V122.014V122.014ZM236.982 78.1076H165.027C165.027 68.17 172.422 59.5327 183.398 55.0283L177.881 46.8321C177.072 45.6944 179.123 44.9746 179.817 45.9498L185.421 54.2156C195.502 50.6167 207.085 50.8025 216.704 54.2156L222.279 45.973C223.002 44.9746 225.024 45.7176 224.215 46.8553L218.697 55.0283C229.588 59.5327 236.982 68.17 236.982 78.1076V78.1076ZM187.674 65.2212C187.674 63.8978 186.345 62.7833 184.641 62.7833C182.994 62.7833 181.694 63.8978 181.694 65.2212C181.694 66.5447 183.023 67.6592 184.641 67.6592C186.345 67.6592 187.674 66.5447 187.674 65.2212ZM220.431 65.2212C220.431 63.8978 219.102 62.7833 217.484 62.7833C215.78 62.7833 214.451 63.8978 214.451 65.2212C214.451 66.5447 215.78 67.6592 217.484 67.6592C219.102 67.6592 220.431 66.5447 220.431 65.2212ZM247.815 79.1756C243.453 79.1756 239.871 81.9851 239.871 85.5608V112.448C239.871 116.024 243.453 118.88 247.815 118.88C252.263 118.88 256.51 116 256.51 112.448V85.5608C256.51 81.9851 252.234 79.1756 247.815 79.1756Z" fill="#368BFC"/>
<ellipse cx="103.99" cy="999.517" rx="103.99" ry="97.482" fill="#0E70D3"/>
<path d="M157.963 951.406C157.824 950.799 157.5 950.241 157.031 949.802C156.562 949.362 155.968 949.059 155.319 948.929C148.341 947.527 142.883 947.527 137.443 947.527C115.079 947.527 101.665 958.738 91.6557 973.522H69.0751C67.1466 973.524 65.2566 974.028 63.6161 974.978C61.9756 975.928 60.6491 977.286 59.7849 978.902L49.0754 998.967C48.6799 999.71 48.4936 1000.54 48.5343 1001.37C48.575 1002.2 48.8412 1003 49.3077 1003.71C49.7743 1004.41 50.4256 1005 51.2 1005.4C51.9744 1005.8 52.8461 1006.02 53.7324 1006.02H76.2198L71.3505 1010.58C70.0503 1011.8 69.3199 1013.45 69.3199 1015.17C69.3199 1016.9 70.0503 1018.55 71.3505 1019.77L82.3808 1030.11C83.0247 1030.71 83.7892 1031.19 84.6307 1031.52C85.4721 1031.84 86.374 1032.01 87.2848 1032.01C88.1956 1032.01 89.0975 1031.84 89.9389 1031.52C90.7803 1031.19 91.5449 1030.71 92.1888 1030.11L97.0582 1025.54V1046.63C97.0579 1047.46 97.284 1048.28 97.715 1049C98.1459 1049.73 98.7675 1050.34 99.5207 1050.78C100.274 1051.22 101.134 1051.46 102.019 1051.5C102.904 1051.54 103.785 1051.37 104.578 1051L125.967 1040.97C127.693 1040.16 129.146 1038.91 130.16 1037.38C131.174 1035.84 131.711 1034.06 131.709 1032.25V1011.05C147.44 1001.65 159.448 989.036 159.448 968.181C159.469 963.063 159.469 957.946 157.963 951.406V951.406ZM131.731 981.646C130.017 981.646 128.341 981.169 126.915 980.277C125.49 979.384 124.379 978.115 123.723 976.631C123.067 975.147 122.895 973.513 123.229 971.937C123.564 970.362 124.389 968.914 125.602 967.778C126.814 966.642 128.358 965.868 130.04 965.555C131.721 965.241 133.464 965.402 135.048 966.017C136.632 966.632 137.986 967.673 138.938 969.009C139.891 970.345 140.399 971.916 140.399 973.522C140.399 975.677 139.486 977.743 137.86 979.266C136.235 980.79 134.03 981.646 131.731 981.646V981.646Z" fill="#F5F5F5"/>
<ellipse cx="277.307" cy="999.517" rx="103.99" ry="97.482" fill="#108BFE"/>
<path d="M256.509 962.15C256.509 954.074 265.821 947.527 277.307 947.527C288.794 947.527 298.105 954.074 298.105 962.15C298.105 970.225 288.794 976.772 277.307 976.772C265.821 976.772 256.509 970.225 256.509 962.15ZM330.061 962.428C326.452 959.89 320.599 959.89 316.989 962.428L291.966 980.021H262.649L237.625 962.428C234.016 959.89 228.163 959.89 224.553 962.428C220.943 964.966 220.943 969.081 224.553 971.619L251.887 990.837V1045.01C251.887 1048.6 256.026 1051.51 261.131 1051.51H265.753C270.858 1051.51 274.996 1048.6 274.996 1045.01V1022.26H279.618V1045.01C279.618 1048.6 283.757 1051.51 288.862 1051.51H293.484C298.589 1051.51 302.727 1048.6 302.727 1045.01V990.837L330.061 971.619C333.671 969.081 333.671 964.966 330.061 962.428V962.428Z" fill="#F5F5F5"/>
<ellipse cx="436.76" cy="999.517" rx="103.99" ry="97.482" fill="#73B7FB"/>
<path d="M457.556 967.024C457.556 956.256 448.245 947.527 436.759 947.527C425.272 947.527 415.961 956.256 415.961 967.024C415.961 977.791 425.272 986.52 436.759 986.52C448.245 986.52 457.556 977.791 457.556 967.024ZM431.904 996.492C419.05 989.115 398.231 987.089 387.754 986.53C384.234 986.343 381.298 988.858 381.298 992.032V1037.28C381.298 1040.19 383.809 1042.62 387.037 1042.77C396.496 1043.24 415.632 1044.94 428.858 1051.19C430.888 1052.15 433.295 1050.84 433.295 1048.78V998.819C433.293 997.871 432.792 997.001 431.904 996.492ZM485.763 986.53C475.289 987.087 454.467 989.115 441.616 996.492C440.728 997.001 440.227 997.905 440.227 998.854V1048.77C440.227 1050.84 442.641 1052.15 444.677 1051.19C457.901 1044.95 477.026 1043.24 486.483 1042.78C489.711 1042.62 492.221 1040.19 492.221 1037.28V992.032C492.219 988.858 489.284 986.343 485.763 986.53V986.53Z" fill="#F5F5F5"/>
<ellipse cx="617.01" cy="999.517" rx="103.99" ry="97.482" fill="#BCDBFE"/>
<ellipse cx="360.5" cy="97.482" rx="103.99" ry="97.482" fill="#A7FDFF"/>
<path d="M339.945 119.139C338.062 117.375 339.044 117.872 334.503 116.733C332.442 116.215 330.631 115.22 328.993 114.028L319.164 136.619C318.213 138.806 319.99 141.183 322.507 141.093L333.922 140.685L341.773 148.459C343.507 150.173 346.548 149.639 347.499 147.452L358.776 121.534C356.427 122.76 353.821 123.479 351.126 123.479C346.901 123.479 342.933 121.938 339.945 119.139V119.139ZM401.837 136.619L392.007 114.028C390.369 115.222 388.558 116.215 386.498 116.733C381.933 117.878 382.934 117.379 381.056 119.139C378.068 121.938 374.097 123.479 369.873 123.479C367.177 123.479 364.571 122.758 362.223 121.534L373.499 147.452C374.45 149.639 377.494 150.173 379.225 148.459L387.079 140.685L398.494 141.093C401.011 141.183 402.788 138.804 401.837 136.619V136.619ZM375.882 114.544C379.193 111.386 379.572 111.658 384.286 110.453C387.295 109.684 389.648 107.44 390.454 104.568C392.074 98.8002 391.654 99.4968 396.076 95.2767C398.279 93.1747 399.139 90.1101 398.333 87.2385C396.715 81.4748 396.713 82.2791 398.333 76.5093C399.139 73.6377 398.279 70.5731 396.076 68.4711C391.654 64.251 392.074 64.9455 390.454 59.1799C389.648 56.3082 387.295 54.0641 384.286 53.2944C378.246 51.7489 378.974 52.1531 374.548 47.9309C372.344 45.8289 369.132 45.0064 366.122 45.7761C360.084 47.3196 360.927 47.3216 354.878 45.7761C351.869 45.0064 348.656 45.8269 346.453 47.9309C342.031 52.151 342.759 51.7489 336.717 53.2944C333.708 54.0641 331.355 56.3082 330.549 59.1799C328.931 64.9455 329.349 64.251 324.927 68.4711C322.724 70.5731 321.861 73.6377 322.67 76.5093C324.288 82.2689 324.29 81.4647 322.67 87.2364C321.864 90.1081 322.724 93.1727 324.927 95.2767C329.349 99.4968 328.928 98.8002 330.549 104.568C331.355 107.44 333.708 109.684 336.717 110.453C341.565 111.692 341.927 111.497 345.118 114.544C347.985 117.279 352.45 117.769 355.894 115.726C357.272 114.906 358.87 114.47 360.501 114.47C362.133 114.47 363.731 114.906 365.108 115.726C368.551 117.769 373.016 117.279 375.882 114.544ZM340.062 81.2291C340.062 70.4594 349.213 61.7286 360.5 61.7286C371.788 61.7286 380.939 70.4594 380.939 81.2291C380.939 91.9988 371.788 100.73 360.5 100.73C349.213 100.73 340.062 91.9988 340.062 81.2291V81.2291Z" fill="#368BFC"/>
<ellipse cx="506.087" cy="97.482" rx="103.99" ry="97.482" fill="#CFFFF9"/>
<path d="M552.305 45.4922H459.869C454.765 45.4922 450.625 50.4823 450.625 56.633V138.332C450.625 144.483 454.765 149.473 459.869 149.473H552.305C557.408 149.473 561.548 144.483 561.548 138.332V56.633C561.548 50.4823 557.408 45.4922 552.305 45.4922ZM484.518 67.7738C491.316 67.7738 496.843 74.4351 496.843 82.6282C496.843 90.8213 491.316 97.4826 484.518 97.4826C477.72 97.4826 472.193 90.8213 472.193 82.6282C472.193 74.4351 477.72 67.7738 484.518 67.7738ZM506.087 122.735C506.087 125.195 504.161 127.191 501.773 127.191H467.263C464.876 127.191 462.95 125.195 462.95 122.735V118.279C462.95 110.898 468.746 104.91 475.891 104.91H476.854C479.222 106.093 481.803 106.767 484.518 106.767C487.233 106.767 489.833 106.093 492.183 104.91H493.146C500.29 104.91 506.087 110.898 506.087 118.279V122.735ZM549.223 110.48C549.223 111.501 548.53 112.337 547.683 112.337H519.952C519.105 112.337 518.411 111.501 518.411 110.48V106.767C518.411 105.745 519.105 104.91 519.952 104.91H547.683C548.53 104.91 549.223 105.745 549.223 106.767V110.48ZM549.223 95.6258C549.223 96.647 548.53 97.4826 547.683 97.4826H519.952C519.105 97.4826 518.411 96.647 518.411 95.6258V91.9122C518.411 90.8909 519.105 90.0554 519.952 90.0554H547.683C548.53 90.0554 549.223 90.8909 549.223 91.9122V95.6258ZM549.223 80.7714C549.223 81.7926 548.53 82.6282 547.683 82.6282H519.952C519.105 82.6282 518.411 81.7926 518.411 80.7714V77.0578C518.411 76.0365 519.105 75.201 519.952 75.201H547.683C548.53 75.201 549.223 76.0365 549.223 77.0578V80.7714Z" fill="#368BFC"/>
<line x1="204.549" y1="194.965" x2="204.549" y2="339.238" stroke="#4A89DE" stroke-width="7"/>
<line y1="-3.5" x2="252.169" y2="-3.5" transform="matrix(0.0109969 0.99994 -0.999953 0.0096636 357.727 194.965)" stroke="#4A89DE" stroke-width="7"/>
<line x1="364" y1="694.07" x2="364" y2="800.651" stroke="#BFF8FF" stroke-width="7"/>
<line x1="107.491" y1="795.453" x2="107.491" y2="902.033" stroke="#BFF8FF" stroke-width="7"/>
<line x1="280.808" y1="795.453" x2="280.808" y2="902.033" stroke="#BFF8FF" stroke-width="7"/>
<line x1="440.259" y1="795.453" x2="440.259" y2="902.033" stroke="#BFF8FF" stroke-width="7"/>
<line x1="620.509" y1="795.453" x2="620.509" y2="902.033" stroke="#BFF8FF" stroke-width="7"/>
<line x1="498.494" y1="194.965" x2="498.494" y2="339.238" stroke="#4A89DE" stroke-width="7"/>
<line x1="201.049" y1="335.738" x2="494.995" y2="335.738" stroke="#4A89DE" stroke-width="7"/>
<g filter="url(#filter0_d_59_52)">
<ellipse cx="360.5" cy="565.396" rx="173.317" ry="162.47" fill="#F2FCFF"/>
</g>
<path d="M265.078 556.108V551.112H286.592V556.108H278.874V576.566H272.808V556.108H265.078ZM295.752 576.927C293.755 576.927 292.032 576.533 290.582 575.746C289.14 574.951 288.03 573.82 287.251 572.353C286.48 570.878 286.095 569.126 286.095 567.096C286.095 565.123 286.484 563.4 287.263 561.925C288.042 560.442 289.14 559.29 290.557 558.47C291.974 557.641 293.644 557.227 295.566 557.227C296.925 557.227 298.168 557.438 299.295 557.861C300.422 558.283 301.395 558.909 302.215 559.738C303.036 560.566 303.674 561.589 304.129 562.808C304.585 564.017 304.813 565.405 304.813 566.971V568.488H288.22V564.958H299.158C299.15 564.311 298.996 563.736 298.698 563.23C298.4 562.725 297.99 562.331 297.468 562.049C296.954 561.759 296.361 561.614 295.69 561.614C295.011 561.614 294.402 561.768 293.863 562.074C293.325 562.373 292.898 562.783 292.583 563.305C292.268 563.818 292.102 564.403 292.086 565.057V568.649C292.086 569.428 292.239 570.112 292.546 570.7C292.852 571.28 293.287 571.732 293.851 572.055C294.414 572.378 295.085 572.539 295.864 572.539C296.403 572.539 296.892 572.465 297.331 572.316C297.77 572.167 298.147 571.947 298.462 571.657C298.777 571.367 299.013 571.011 299.17 570.588L304.751 570.75C304.519 572.001 304.009 573.09 303.222 574.018C302.443 574.938 301.42 575.655 300.152 576.169C298.884 576.674 297.418 576.927 295.752 576.927ZM316.829 576.927C314.815 576.927 313.088 576.513 311.646 575.684C310.212 574.855 309.11 573.704 308.34 572.229C307.569 570.746 307.184 569.03 307.184 567.083C307.184 565.128 307.569 563.412 308.34 561.938C309.119 560.454 310.225 559.298 311.658 558.47C313.1 557.641 314.819 557.227 316.816 557.227C318.581 557.227 320.118 557.546 321.428 558.184C322.745 558.822 323.772 559.725 324.51 560.893C325.256 562.054 325.649 563.417 325.691 564.983H320.011C319.895 564.005 319.563 563.238 319.016 562.683C318.478 562.128 317.773 561.85 316.903 561.85C316.199 561.85 315.582 562.049 315.051 562.447C314.521 562.837 314.107 563.417 313.809 564.187C313.519 564.949 313.374 565.894 313.374 567.021C313.374 568.148 313.519 569.101 313.809 569.88C314.107 570.65 314.521 571.234 315.051 571.632C315.582 572.022 316.199 572.216 316.903 572.216C317.467 572.216 317.964 572.096 318.395 571.856C318.834 571.616 319.194 571.263 319.476 570.799C319.758 570.327 319.936 569.755 320.011 569.084H325.691C325.633 570.658 325.239 572.034 324.51 573.211C323.789 574.387 322.774 575.303 321.465 575.957C320.164 576.604 318.619 576.927 316.829 576.927ZM334.879 565.679V576.566H328.801V557.475H334.58V560.98H334.792C335.214 559.812 335.935 558.897 336.954 558.234C337.974 557.562 339.187 557.227 340.596 557.227C341.938 557.227 343.103 557.529 344.089 558.134C345.083 558.731 345.854 559.568 346.4 560.645C346.956 561.714 347.229 562.965 347.221 564.398V576.566H341.143V565.592C341.151 564.531 340.882 563.702 340.335 563.106C339.797 562.509 339.047 562.211 338.085 562.211C337.447 562.211 336.884 562.352 336.395 562.634C335.915 562.907 335.542 563.301 335.277 563.814C335.02 564.328 334.887 564.949 334.879 565.679ZM359.895 576.927C357.89 576.927 356.167 576.517 354.725 575.696C353.291 574.868 352.185 573.716 351.406 572.241C350.636 570.758 350.25 569.039 350.25 567.083C350.25 565.119 350.636 563.4 351.406 561.925C352.185 560.442 353.291 559.29 354.725 558.47C356.167 557.641 357.89 557.227 359.895 557.227C361.9 557.227 363.62 557.641 365.053 558.47C366.495 559.29 367.601 560.442 368.372 561.925C369.151 563.4 369.54 565.119 369.54 567.083C369.54 569.039 369.151 570.758 368.372 572.241C367.601 573.716 366.495 574.868 365.053 575.696C363.62 576.517 361.9 576.927 359.895 576.927ZM359.932 572.341C360.662 572.341 361.279 572.117 361.784 571.669C362.29 571.222 362.675 570.6 362.94 569.805C363.214 569.01 363.35 568.09 363.35 567.046C363.35 565.985 363.214 565.057 362.94 564.262C362.675 563.466 362.29 562.845 361.784 562.397C361.279 561.95 360.662 561.726 359.932 561.726C359.178 561.726 358.54 561.95 358.018 562.397C357.505 562.845 357.111 563.466 356.838 564.262C356.573 565.057 356.44 565.985 356.44 567.046C356.44 568.09 356.573 569.01 356.838 569.805C357.111 570.6 357.505 571.222 358.018 571.669C358.54 572.117 359.178 572.341 359.932 572.341ZM378.731 551.112V576.566H372.654V551.112H378.731ZM391.511 576.927C389.506 576.927 387.783 576.517 386.341 575.696C384.907 574.868 383.801 573.716 383.022 572.241C382.252 570.758 381.867 569.039 381.867 567.083C381.867 565.119 382.252 563.4 383.022 561.925C383.801 560.442 384.907 559.29 386.341 558.47C387.783 557.641 389.506 557.227 391.511 557.227C393.517 557.227 395.236 557.641 396.669 558.47C398.111 559.29 399.217 560.442 399.988 561.925C400.767 563.4 401.156 565.119 401.156 567.083C401.156 569.039 400.767 570.758 399.988 572.241C399.217 573.716 398.111 574.868 396.669 575.696C395.236 576.517 393.517 576.927 391.511 576.927ZM391.549 572.341C392.278 572.341 392.895 572.117 393.401 571.669C393.906 571.222 394.291 570.6 394.557 569.805C394.83 569.01 394.967 568.09 394.967 567.046C394.967 565.985 394.83 565.057 394.557 564.262C394.291 563.466 393.906 562.845 393.401 562.397C392.895 561.95 392.278 561.726 391.549 561.726C390.795 561.726 390.157 561.95 389.635 562.397C389.121 562.845 388.727 563.466 388.454 564.262C388.189 565.057 388.056 565.985 388.056 567.046C388.056 568.09 388.189 569.01 388.454 569.805C388.727 570.6 389.121 571.222 389.635 571.669C390.157 572.117 390.795 572.341 391.549 572.341ZM413.169 584.123C411.354 584.123 409.801 583.871 408.508 583.365C407.215 582.86 406.2 582.168 405.463 581.289C404.725 580.411 404.282 579.417 404.133 578.306L409.888 577.983C409.995 578.373 410.194 578.712 410.484 579.002C410.783 579.292 411.168 579.516 411.64 579.674C412.121 579.831 412.684 579.91 413.33 579.91C414.35 579.91 415.191 579.661 415.854 579.164C416.525 578.675 416.86 577.818 416.86 576.591V573.235H416.649C416.409 573.824 416.044 574.35 415.555 574.814C415.066 575.278 414.457 575.643 413.728 575.908C413.007 576.173 412.179 576.305 411.242 576.305C409.85 576.305 408.574 575.982 407.414 575.336C406.263 574.681 405.339 573.67 404.643 572.303C403.955 570.928 403.611 569.159 403.611 566.996C403.611 564.767 403.967 562.932 404.68 561.49C405.393 560.04 406.325 558.967 407.476 558.271C408.636 557.575 409.884 557.227 411.218 557.227C412.22 557.227 413.078 557.401 413.79 557.749C414.511 558.089 415.104 558.528 415.568 559.066C416.032 559.605 416.384 560.164 416.624 560.744H416.798V557.475H422.851V576.641C422.851 578.257 422.445 579.62 421.633 580.73C420.821 581.84 419.686 582.681 418.227 583.253C416.769 583.833 415.083 584.123 413.169 584.123ZM413.355 571.881C414.093 571.881 414.723 571.686 415.245 571.297C415.767 570.907 416.168 570.348 416.45 569.619C416.732 568.889 416.873 568.015 416.873 566.996C416.873 565.96 416.732 565.07 416.45 564.324C416.177 563.57 415.775 562.99 415.245 562.584C414.723 562.178 414.093 561.975 413.355 561.975C412.601 561.975 411.963 562.182 411.441 562.596C410.919 563.011 410.522 563.595 410.248 564.349C409.983 565.094 409.85 565.977 409.85 566.996C409.85 568.015 409.987 568.889 410.261 569.619C410.534 570.348 410.928 570.907 411.441 571.297C411.963 571.686 412.601 571.881 413.355 571.881ZM430.442 583.725C429.713 583.725 429.025 583.667 428.379 583.551C427.733 583.444 427.177 583.299 426.713 583.116L428.056 578.704C428.652 578.903 429.191 579.019 429.671 579.052C430.16 579.085 430.579 579.007 430.927 578.816C431.283 578.634 431.557 578.306 431.747 577.834L431.983 577.262L425.197 557.475H431.561L435.078 571.098H435.277L438.844 557.475H445.245L438.049 578.393C437.701 579.438 437.208 580.357 436.57 581.153C435.94 581.956 435.124 582.586 434.121 583.042C433.127 583.498 431.9 583.725 430.442 583.725Z" fill="#368BFC"/>
<path d="M663.814 999.514C673.75 988.366 674.092 979.485 670.039 973.519C667.337 969.554 660.001 963.216 641.235 965.013C635.917 954.609 627.816 947.523 617.01 947.523C606.205 947.523 598.104 954.609 592.785 965.013C574.035 963.23 566.681 969.554 563.982 973.519C559.927 979.489 560.268 988.362 570.207 999.514C560.271 1010.66 559.929 1019.54 563.982 1025.51C571.215 1036.14 589.158 1034.36 592.785 1034.01C598.101 1044.42 606.205 1051.5 617.01 1051.5C627.816 1051.5 635.919 1044.42 641.235 1034.01C644.86 1034.36 662.804 1036.14 670.039 1025.51C674.094 1019.54 673.753 1010.67 663.814 999.514V999.514ZM577.241 1019.01C576.243 1017.55 577.194 1013.97 580.943 1009.2C582.666 1010.53 584.459 1011.82 586.358 1013.1C586.781 1015.88 587.348 1018.6 588.031 1021.24C581.95 1021.42 578.155 1020.35 577.241 1019.01V1019.01ZM586.358 985.931C584.461 987.209 582.668 988.5 580.943 989.827C577.197 985.054 576.246 981.482 577.241 980.017C578.085 978.77 581.299 977.688 586.63 977.688C587.053 977.688 587.588 977.749 588.039 977.763C587.335 980.465 586.774 983.19 586.358 985.931V985.931ZM617.01 960.521C619.355 960.521 622.507 963.267 625.394 968.088C622.623 968.84 619.838 969.713 617.01 970.7C614.183 969.713 611.397 968.84 608.627 968.088C611.514 963.267 614.666 960.521 617.01 960.521ZM617.01 1038.51C614.666 1038.51 611.514 1035.76 608.627 1030.94C611.397 1030.19 614.183 1029.31 617.01 1028.33C619.838 1029.31 622.623 1030.19 625.394 1030.94C622.507 1035.76 619.355 1038.51 617.01 1038.51ZM632.485 1006.55C625.874 1010.43 621.061 1012.51 617.01 1014.17C612.962 1012.51 608.146 1010.43 601.535 1006.55C601.043 1000.91 601.043 998.119 601.535 992.475C608.139 988.606 612.957 986.52 617.01 984.863C621.069 986.522 625.889 988.608 632.485 992.475C632.976 998.117 632.978 1000.91 632.485 1006.55ZM656.78 1019.01C655.871 1020.35 652.075 1021.41 645.989 1021.23C646.673 1018.59 647.24 1015.88 647.663 1013.1C649.56 1011.82 651.352 1010.53 653.078 1009.2C656.824 1013.97 657.775 1017.55 656.78 1019.01ZM653.078 989.825C651.355 988.498 649.562 987.207 647.663 985.929C647.246 983.188 646.685 980.463 645.982 977.761C646.433 977.747 646.965 977.686 647.391 977.686C652.719 977.686 655.935 978.77 656.78 980.015C657.775 981.482 656.824 985.054 653.078 989.825V989.825ZM617.01 993.015C612.635 993.015 609.087 995.925 609.087 999.514C609.087 1003.1 612.635 1006.01 617.01 1006.01C621.385 1006.01 624.934 1003.1 624.934 999.514C624.934 995.925 621.385 993.015 617.01 993.015Z" fill="#F5F5F5"/>
<line x1="103.991" y1="797.152" x2="617.01" y2="797.152" stroke="#BFF8FF" stroke-width="7"/>
<defs>
<filter id="filter0_d_59_52" x="142.183" y="358.926" width="436.635" height="414.941" filterUnits="userSpaceOnUse" color-interpolation-filters="sRGB">
<feFlood flood-opacity="0" result="BackgroundImageFix"/>
<feColorMatrix in="SourceAlpha" type="matrix" values="0 0 0 0 0 0 0 0 0 0 0 0 0 0 0 0 0 0 127 0" result="hardAlpha"/>
<feOffset dy="1"/>
<feGaussianBlur stdDeviation="22.5"/>
<feComposite in2="hardAlpha" operator="out"/>
<feColorMatrix type="matrix" values="0 0 0 0 0 0 0 0 0 0 0 0 0 0 0 0 0 0 0.45 0"/>
<feBlend mode="normal" in2="BackgroundImageFix" result="effect1_dropShadow_59_52"/>
<feBlend mode="normal" in="SourceGraphic" in2="effect1_dropShadow_59_52" result="shape"/>
</filter>
</defs>
</svg>
